<?xml version="1.0" encoding="UTF-8" standalone="no"?>
<!DOCTYPE svg PUBLIC "-//W3C//DTD SVG 1.1//EN" "http://www.w3.org/Graphics/SVG/1.1/DTD/svg11.dtd">
<svg width="100%" height="100%" viewBox="0 0 512 512" version="1.1" xmlns="http://www.w3.org/2000/svg" xmlns:xlink="http://www.w3.org/1999/xlink" xml:space="preserve" xmlns:serif="http://www.serif.com/" style="fill-rule:evenodd;clip-rule:evenodd;stroke-linecap:round;stroke-linejoin:round;stroke-miterlimit:1.5;">
    <g id="Steven">
        <g id="Body">
            <g>
                <path id="Body1" serif:id="Body" d="M145.458,330.733L363.29,329.623C410.219,346.949 445.48,391.432 468.596,467.536C311.592,460.151 173.454,471.897 43.21,482.751C31.079,399.888 68.717,343.484 145.458,330.733Z" style="fill:rgb(247,195,180);stroke:black;stroke-width:4px;"/>
                <g id="Left-Arm" serif:id="Left Arm">
                    <path d="M362.958,329.745C391.243,340.499 412.225,358.472 428.423,381.175C416.009,379.489 407.2,381.546 400.981,386.291L366.825,354.912L336.089,328.373L362.958,329.745Z" style="fill:rgb(241,130,134);stroke:black;stroke-width:2px;"/>
                    <path d="M436.191,454.45L440.22,468.088C451.233,471.186 460.691,471.82 467.725,468.046L462.337,451.948L436.191,454.45Z" style="fill:rgb(247,195,180);"/>
                </g>
                <g id="Right-Arm" serif:id="Right Arm">
                    <path id="Right-Arm-Fill" serif:id="Right Arm Fill" d="M43.175,455.96L44.078,483.83C79.3,493.667 116.81,494.524 163.373,478.212L158.006,455.18L43.175,455.96Z" style="fill:rgb(247,195,180);"/>
                    <path id="Right-Sleeve" serif:id="Right Sleeve" d="M159.649,327.797C76.292,338.212 48.651,383.086 40.412,439.961C77.97,416.149 117.551,415.068 159.436,439.851L184,336L159.649,327.797Z" style="fill:rgb(241,130,134);stroke:black;stroke-width:2px;"/>
                </g>
                <g id="Torso">
                    <path id="Belly" d="M158.588,396.184C160.627,465.262 160.241,471.304 163.415,477.316L439.423,467.888C437.977,453.489 425.49,432.827 407.457,416.018C408.838,392.654 397.162,371.936 367.305,354.904L158.588,396.184Z" style="fill:rgb(241,130,134);stroke:black;stroke-width:3px;"/>
                    <path id="T-shirt-Fill" serif:id="T-shirt Fill" d="M360,320L366.648,355.058L405.97,416.937C405.97,416.937 437.926,463.913 439.462,469.151C368.649,499.825 277.625,504.41 164.211,478.356L159.636,395.031L160,320L360,320Z" style="fill:rgb(241,130,134);"/>
                </g>
                <path id="Star" d="M295.345,360.41C296.213,359.813 297.338,359.737 298.278,360.213C305.496,363.99 314.699,370.786 327.709,381.767C345.402,382.375 365.886,381.779 372.822,387.482C373.552,388.174 373.87,389.194 373.665,390.178C371.109,402.06 363.915,413.624 357.626,425.249C357.238,425.967 357.131,426.805 357.325,427.598C361.228,443.313 368.624,459.367 366.587,476.683C366.44,477.843 365.492,478.736 364.325,478.812C341.063,480.378 325.724,472.877 312.825,461.639C312.188,461.082 311.281,460.958 310.518,461.325C296.565,468.275 268.691,487.175 253.019,488.102C252.634,488.119 252.253,488.011 251.934,487.795C249.476,485.402 247.703,473.959 254.945,442.963C226.076,419.433 215.62,412.666 216.654,407.937C216.707,407.729 216.818,407.539 216.974,407.391C223.219,401.639 243.85,396.383 270.13,393.247C279.436,375.748 287.091,366.238 295.345,360.41Z" style="fill:rgb(250,215,117);"/>
            </g>
        </g>
        <g id="Head">
            <g>
                <path id="Hair" d="M322.994,188.703C342.279,178.099 347.597,134.049 318.601,136.838C314.043,58.062 234.799,69.893 217.646,89.184C169.886,34.689 93.741,78.814 98.958,125.114C24.065,136.412 36.926,219.022 62.137,231.906C37.168,253.659 48.838,307.034 62.578,314.218C71.258,333.043 82.703,343.221 112.706,340.765L320,344L322.994,188.703Z"/>
                <path id="Face" d="M133.727,292.052C133.727,292.052 127.967,313.502 145.599,331.805C153.979,340.503 231.212,359.205 297.413,354.363C371.843,348.92 384.595,305.427 376.144,270.303C368.334,237.851 330.845,220.214 330.845,220.214C333.2,225.274 321.792,129.71 225.972,133.478C161.176,136.026 141.06,183.657 142.699,209.484C143.804,226.897 152.696,235.572 153.035,244.704C153.621,260.497 147.989,268.789 131.279,254.254C128.675,251.988 127.306,246.668 125.212,242.457C114.681,221.276 75.988,226.124 85.089,268.735C88.333,283.926 96.538,289.212 100.191,295.208C124.7,313.74 133.727,292.052 133.727,292.052Z" style="fill:rgb(247,195,180);stroke:black;stroke-width:4px;"/>
                <g id="Feature">
                    <g>
                        <g id="Mouth">
                            <path id="Cheek-R" serif:id="Cheek R" d="M175.353,260.947C175.467,264.024 170.661,267.868 163.479,267.34" style="fill:none;stroke:black;stroke-width:2px;"/>
                            <g id="Cheek-L" serif:id="Cheek L" transform="matrix(1,0,0,1,170.429,-14.7243)">
                                <path d="M175.315,261.853C179.803,266.041 176.627,271.182 186.611,273.035" style="fill:none;stroke:black;stroke-width:2px;"/>
                            </g>
                            <path id="Lips" d="M170.932,266.195C180.839,273.294 216.342,296.91 281.757,297.311C319.29,297.541 342.647,269.542 349.538,254.361" style="fill:none;stroke:black;stroke-width:2.5px;"/>
                        </g>
                        <g id="Eye-L" serif:id="Eye L">
                            <path id="Frame" d="M286.298,178.524C293.987,178.278 305.26,188.496 311.922,203.598C318.772,219.125 319.555,239.127 304.132,245.563C288.708,251.999 268.607,248.362 267.861,216.432C267.115,184.501 282.222,178.654 286.298,178.524Z" style="fill:white;stroke:black;stroke-width:2.5px;"/>
                            <path id="Pupil" d="M300.072,202.981C303.43,202.981 305.353,205.672 305.981,210.668C307.065,219.293 304.637,222.584 301.279,222.584C297.921,222.584 294.12,219.695 294.238,210.838C294.308,205.567 296.714,202.981 300.072,202.981Z"/>
                        </g>
                        <g id="Nose">
                            <path id="Fill" d="M257.243,204.616C257.243,204.616 289.73,217.97 292.082,223.209C294.435,228.449 293.792,247.703 290.965,257.699C288.138,267.695 271.174,263.888 271.174,263.888L255.721,255.452L257.243,204.616Z" style="fill:rgb(247,195,180);"/>
                            <path id="Outline" d="M260.536,205.402C260.536,205.402 289.138,217.516 291.391,222.418C293.643,227.319 295.052,229.469 291.881,253.224" style="fill:none;stroke:black;stroke-width:2.5px;"/>
                            <path id="Nostril-R" serif:id="Nostril R" d="M286.183,231.014C286.183,231.014 285.683,250.622 284.294,255.861" style="fill:none;stroke:black;stroke-width:2.5px;"/>
                            <path id="Nostril-L" serif:id="Nostril L" d="M276.152,230.171C276.152,230.171 272.747,256.594 272.148,257.658" style="fill:none;stroke:black;stroke-width:2.5px;"/>
                        </g>
                        <g id="Eye-R" serif:id="Eye R">
                            <path id="Frame1" serif:id="Frame" d="M215.261,179.388C225.295,178.167 242.426,189.567 245.224,216.448C247.896,242.113 228.517,253.473 218.622,254.755C208.726,256.038 185.967,250.513 185.851,224.144C185.786,209.433 198.883,181.38 215.261,179.388Z" style="fill:white;stroke:black;stroke-width:2.5px;"/>
                            <g id="Pupil1" serif:id="Pupil" transform="matrix(1,0,0,1,-75.8806,3.71326)">
                                <path d="M300.472,203.096C303.83,203.096 305.711,208.387 306.155,212.303C306.761,217.654 306.236,226.033 300.847,226.633C294.391,227.352 291.901,217.907 292.911,210.741C293.671,205.354 297.114,203.096 300.472,203.096Z"/>
                            </g>
                        </g>
                        <g id="Eyebrow-L" serif:id="Eyebrow L" transform="matrix(0.85975,0,-2.22045e-16,0.978754,97.5986,-0.00506715)">
                            <path d="M181.066,146.943C176.332,149.614 174.48,157.623 183.404,157.911C200.78,158.472 203.93,161.305 211.511,162.145C226.464,163.801 224.425,153.441 216.929,150.124C198.477,141.958 187.764,143.165 181.066,146.943Z"/>
                        </g>
                        <path id="Eyebrow-R" serif:id="Eyebrow R" d="M180.191,156.591C178.494,160.957 179.95,168.611 187.766,164.833C193.75,161.941 209.982,158.956 215.21,156.376C228.719,149.711 221.24,142.577 213.392,140.943C200.924,138.347 183.03,149.283 180.191,156.591Z" style="stroke:black;stroke-width:0.5px;"/>
                    </g>
                </g>
            </g>
        </g>
    </g>
</svg>
